<?xml version="1.0" encoding="utf-8"?>
<!-- Generator: Adobe Illustrator 25.3.1, SVG Export Plug-In . SVG Version: 6.00 Build 0)  -->
<svg version="1.1" id="图层_1" xmlns="http://www.w3.org/2000/svg" xmlns:xlink="http://www.w3.org/1999/xlink" x="0px" y="0px"
	 viewBox="0 0 761.7 143.1" style="enable-background:new 0 0 761.7 143.1;" xml:space="preserve">
<style type="text/css">
	.st0{clip-path:url(#SVGID_2_);}
	.st1{fill:#FAC3AF;}
	.st2{fill:#F89575;}
	.st3{fill:#F9D2C1;}
	.st4{fill:#FBCDBD;}
	.st5{fill:#F9AF96;}
	.st6{fill:#FBC4B0;}
	.st7{fill:#F99575;}
</style>
<g>
	<defs>
		<path id="SVGID_1_" d="M143,23v97.1c0,12.5-9.6,22.7-21.4,22.7H21.4C9.6,142.8,0,132.7,0,120.1V23C0,10.5,9.6,0.3,21.4,0.3h100.2
			C133.4,0.3,143,10.5,143,23z"/>
	</defs>
	<clipPath id="SVGID_2_">
		<use xlink:href="#SVGID_1_"  style="overflow:visible;"/>
	</clipPath>
	<g class="st0">
		<polygon class="st1" points="1.8,75 58.2,97.7 61,69.4 55.9,19.1 4.2,72.4 		"/>
		<path class="st2" d="M4.2,72.4l51.7-53.4c0,0-3.5-2.9-9.2-1.7c-2.3,0.5-4.4,1.5-6.2,3L20.6,36.8c-3,2.5-5.7,5.2-8,8.3
			c0,0.1-0.1,0.1-0.1,0.2C8.5,50.4,6,56.3,5,62.7C4.5,65.6,4.1,69.1,4.2,72.4z"/>
		<path class="st3" d="M55.9,19.1L61,69.4l40.9-4.9c0.4-2-0.1-4.2-1.7-5.8L74.9,32.3l4.2-21.4c0.2-1.3-1-2.2-2.2-1.7L55.9,19.1z"/>
		<path class="st4" d="M61,69.4l18.6,12.6c3.9,2.6,9.2,1.7,12-2.2l9.2-12.9c0.5-0.8,0.9-1.6,1.1-2.4L61,69.4z"/>
		<path class="st5" d="M1.8,75l21.4,58.8l12,33c0.4,1,1.3,1.7,2.4,1.7h11.2c1.3,0,2.4-1,2.5-2.3l6.8-68.5L1.8,75z"/>
		<path class="st6" d="M-65.2,116.9l38,15.6L1.8,75l-33.2-0.8c0,0-7.3,0.1-15.2,4c-3.6,1.8-7.4,4.4-10.6,8.1
			c-2.5,2.9-4.6,6.5-6.2,10.9C-63.4,97.1-66.4,106.6-65.2,116.9z"/>
		<path class="st2" d="M-65.2,116.9C-65.2,116.9-65.2,117-65.2,116.9l5.3,49.6c0.1,1.1,1,1.9,2.1,1.9h11.3c0.8,0,1.5-0.4,1.9-1.2
			l17.5-34.7L-65.2,116.9z"/>
		<polygon class="st7" points="-27.2,132.6 23.2,133.8 1.8,75 		"/>
		<path class="st2" d="M-82.8,81.1l25.5,5.1c3.2-3.7,7-6.3,10.6-8.1c-2-4-10.3-17-33.2-18c-0.7,0-1.2,0.5-1.3,1.1l-2.6,18.4
			C-83.9,80.3-83.4,80.9-82.8,81.1z"/>
	</g>
</g>
</svg>
