<?xml version="1.0" encoding="utf-8"?>
<!-- Generator: Adobe Illustrator 25.3.1, SVG Export Plug-In . SVG Version: 6.00 Build 0)  -->
<svg version="1.1" id="图层_1" xmlns="http://www.w3.org/2000/svg" xmlns:xlink="http://www.w3.org/1999/xlink" x="0px" y="0px"
	 viewBox="0 0 92 17" style="enable-background:new 0 0 92 17;" xml:space="preserve">
<style type="text/css">
	.st0{clip-path:url(#SVGID_2_);}
	.st1{fill:#FAC3AF;}
	.st2{fill:#F89575;}
	.st3{fill:#F9D2C1;}
	.st4{fill:#FBCDBD;}
	.st5{fill:#F9AF96;}
	.st6{fill:#FBC4B0;}
	.st7{fill:#F99575;}
	.st8{fill:#333333;}
</style>
<g>
	<defs>
		<path id="SVGID_1_" d="M17,2.6v11.5c0,1.5-1.1,2.7-2.5,2.7H2.5c-1.4,0-2.5-1.2-2.5-2.7V2.6c0-1.5,1.1-2.7,2.5-2.7h11.9
			C15.8-0.1,17,1.1,17,2.6z"/>
	</defs>
	<clipPath id="SVGID_2_">
		<use xlink:href="#SVGID_1_"  style="overflow:visible;"/>
	</clipPath>
	<g class="st0">
		<polygon class="st1" points="0.2,8.8 6.9,11.5 7.2,8.1 6.6,2.2 0.5,8.5 		"/>
		<path class="st2" d="M0.5,8.5l6.1-6.3c0,0-0.4-0.3-1.1-0.2C5.3,2,5,2.1,4.8,2.3l-2.4,2c-0.4,0.3-0.7,0.6-1,1c0,0,0,0,0,0
			C1,5.9,0.7,6.6,0.6,7.3C0.5,7.7,0.5,8.1,0.5,8.5z"/>
		<path class="st3" d="M6.6,2.2l0.6,6l4.8-0.6c0.1-0.2,0-0.5-0.2-0.7l-3-3.1l0.5-2.5C9.4,1,9.2,0.9,9.1,1L6.6,2.2z"/>
		<path class="st4" d="M7.2,8.1l2.2,1.5c0.5,0.3,1.1,0.2,1.4-0.3l1.1-1.5C12,7.8,12,7.7,12.1,7.6L7.2,8.1z"/>
		<path class="st5" d="M0.2,8.8l2.5,7l1.4,3.9c0,0.1,0.2,0.2,0.3,0.2h1.3c0.2,0,0.3-0.1,0.3-0.3l0.8-8.1L0.2,8.8z"/>
		<path class="st6" d="M-7.8,13.8l4.5,1.9l3.4-6.8l-3.9-0.1c0,0-0.9,0-1.8,0.5c-0.4,0.2-0.9,0.5-1.3,1c-0.3,0.3-0.6,0.8-0.7,1.3
			C-7.5,11.4-7.9,12.6-7.8,13.8z"/>
		<path class="st2" d="M-7.8,13.8C-7.8,13.8-7.8,13.8-7.8,13.8l0.6,5.9c0,0.1,0.1,0.2,0.2,0.2h1.3c0.1,0,0.2-0.1,0.2-0.1l2.1-4.1
			L-7.8,13.8z"/>
		<polygon class="st7" points="-3.2,15.6 2.7,15.8 0.2,8.8 		"/>
		<path class="st2" d="M-9.8,9.5l3,0.6c0.4-0.4,0.8-0.7,1.3-1c-0.2-0.5-1.2-2-3.9-2.1c-0.1,0-0.1,0.1-0.2,0.1L-10,9.3
			C-10,9.4-9.9,9.5-9.8,9.5z"/>
	</g>
</g>
<g>
	<path class="st8" d="M17.2,4.7c0.5,0.1,0.7,0.3,0.6,0.8C17.5,8,17,10.2,16.4,12c-0.1,0.5-0.4,0.6-0.9,0.5l-0.1,0
		C15,12.3,14.9,12,15,11.5c0.3-1,0.6-2,0.8-3.1c0.2-1.1,0.4-2.1,0.5-3.1c0-0.2,0.1-0.4,0.3-0.5C16.7,4.7,16.9,4.7,17.2,4.7L17.2,4.7
		L17.2,4.7z M21.7,2.1c0.5,0,0.7,0.2,0.7,0.7v11.4c0,0.9-0.5,1.4-1.4,1.4h-1.2c-0.5,0-0.7-0.2-0.7-0.7v-0.1c0-0.5,0.2-0.7,0.7-0.7h1
		V2.8C20.9,2.4,21.1,2.1,21.7,2.1L21.7,2.1L21.7,2.1z M26.1,4.7c0.2,0,0.4,0,0.6,0.1c0.1,0.1,0.2,0.3,0.3,0.5
		c0.3,2.3,0.7,4.4,1.3,6.2c0.1,0.5,0,0.8-0.5,0.9l-0.1,0c-0.5,0.1-0.8,0-0.9-0.5c-0.3-1-0.6-2.1-0.8-3.2c-0.2-1.1-0.4-2.2-0.5-3.2
		C25.3,5,25.6,4.8,26.1,4.7L26.1,4.7L26.1,4.7z M39.1,11.5c0.5,0,0.7,0.2,0.7,0.7v0.1c0,0.5-0.2,0.7-0.7,0.7h-8.6
		c-0.5,0-0.7-0.2-0.7-0.7v-0.1c0-0.5,0.2-0.7,0.7-0.7H39.1L39.1,11.5z M39.5,2.4c0.4,0,0.8,0.1,1,0.3c0.2,0.2,0.3,0.6,0.3,1v4.4
		c0,0.5-0.2,0.7-0.7,0.7H40c-0.5,0-0.7-0.2-0.7-0.7V3.9h-8.1c-0.5,0-0.7-0.2-0.7-0.7V3.1c0-0.5,0.2-0.7,0.7-0.7H39.5L39.5,2.4z
		 M33.4,3.1C33.9,3.2,34.1,3.5,34,4l-0.7,4.1h8.5c0.4,0,0.8,0.1,1,0.3c0.2,0.2,0.3,0.6,0.3,1v4.8c0,0.4-0.1,0.8-0.3,1
		c-0.2,0.2-0.6,0.3-1,0.3h-1.3c-0.5,0-0.7-0.2-0.7-0.7v-0.1c0-0.5,0.2-0.7,0.7-0.7h1.1V9.6h-8.6c-0.5,0-0.9-0.1-1.1-0.4
		c-0.2-0.3-0.3-0.7-0.2-1.2l0.8-4.3C32.6,3.2,32.9,3,33.4,3.1L33.4,3.1L33.4,3.1z M57.2,11c0.4,0,0.7,0.2,0.7,0.6v0.1
		c0,0.4-0.2,0.7-0.6,0.7l-11.8,0.5c-0.4,0-0.7-0.2-0.7-0.6v-0.1c0-0.4,0.2-0.7,0.6-0.7L57.2,11L57.2,11z M45.9,2.1
		c0.5,0,0.7,0.2,0.7,0.5v0.2h3.8c0.4,0,0.7,0.2,0.7,0.7v0.1c0,0.4-0.2,0.7-0.7,0.7h-4.1c-0.9,0-1.3-0.4-1.3-1.3V2.6
		C45.1,2.3,45.3,2.1,45.9,2.1L45.9,2.1L45.9,2.1z M56.7,8.3c0.4,0,0.7,0.2,0.7,0.6V9c0,0.4-0.2,0.7-0.6,0.7l-10.8,0.5
		c-0.4,0-0.7-0.2-0.7-0.6V9.5c0-0.4,0.2-0.7,0.6-0.7L56.7,8.3L56.7,8.3z M56.7,5.6c0.4,0,0.7,0.2,0.7,0.6v0.1c0,0.4-0.2,0.7-0.6,0.7
		L46.1,7.5c-0.4,0-0.7-0.2-0.7-0.6V6.8c0-0.4,0.2-0.7,0.6-0.7L56.7,5.6L56.7,5.6z M48.3,3.4c0.5,0,0.7,0.2,0.7,0.7v0.5
		c0,0.5-0.2,0.7-0.7,0.7h-0.1c-0.5,0-0.7-0.2-0.7-0.7V4.2C47.5,3.7,47.7,3.4,48.3,3.4L48.3,3.4L48.3,3.4z M50.9,6.6
		c0.5,0,0.7,0.2,0.7,0.7v6.9h5.6c0.4,0,0.6,0.2,0.6,0.6v0.1c0,0.4-0.2,0.6-0.6,0.6h-5.8c-0.4,0-0.7-0.1-1-0.3
		c-0.2-0.2-0.3-0.5-0.3-1V7.3C50.1,6.9,50.4,6.6,50.9,6.6L50.9,6.6L50.9,6.6z M52.5,2.1c0.5,0,0.7,0.2,0.7,0.5v0.2h4
		c0.4,0,0.7,0.2,0.7,0.7v0.1c0,0.4-0.2,0.7-0.7,0.7H53c-0.9,0-1.3-0.4-1.3-1.3V2.6C51.7,2.3,52,2.1,52.5,2.1L52.5,2.1L52.5,2.1z
		 M54.5,3.4c0.5,0,0.7,0.2,0.7,0.7v0.4c0,0.5-0.2,0.7-0.7,0.7h-0.1c-0.5,0-0.7-0.2-0.7-0.7V4.2C53.8,3.7,54,3.4,54.5,3.4L54.5,3.4
		L54.5,3.4z M60.6,6.6c0.4,0,0.8,0.1,1,0.3C61.9,7.2,62,7.5,62,8v6h0.5c0.5,0,0.8,0.3,0.8,0.8v0.1c0,0.5-0.3,0.7-0.8,0.7h-0.6
		c-0.5,0-0.8-0.1-1-0.3c-0.2-0.2-0.4-0.6-0.4-1v-6H60c-0.5,0-0.7-0.2-0.7-0.7V7.3c0-0.5,0.2-0.7,0.7-0.7H60.6L60.6,6.6z M60.8,2.3
		c0.4-0.2,0.8-0.1,1,0.3l0.9,1.8c0.2,0.4,0.1,0.8-0.3,1l-0.1,0c-0.4,0.2-0.8,0.1-1-0.3l-0.9-1.7C60.2,2.8,60.3,2.5,60.8,2.3
		L60.8,2.3L60.8,2.3z M71,2.6c0.9,0,1.4,0.5,1.4,1.4v3.6c0,0.9-0.5,1.4-1.4,1.4h-4.7v5.1h5.3V13c0-0.5,0.2-0.7,0.7-0.7h0.1
		c0.5,0,0.7,0.2,0.7,0.7v1c0,0.9-0.5,1.4-1.4,1.4h-5.6c-0.9,0-1.4-0.5-1.4-1.4V8.7c0-0.9,0.5-1.4,1.4-1.4h4.7V4.1h-5.7
		c-0.5,0-0.7-0.2-0.7-0.7V3.3c0-0.5,0.2-0.7,0.7-0.7H71L71,2.6z"/>
</g>
</svg>
