<?xml version="1.0" encoding="UTF-8"?>
<svg width="40" height="40" viewBox="0 0 40 40" fill="none" xmlns="http://www.w3.org/2000/svg">
  <g>
    <rect width="40" height="40" fill="#FFFFFF"/>
    <path d="M26.25 5h3.75c0 4.15 3.35 7.5 7.5 7.5v3.75c-2.73 0-5.31-0.9-7.5-2.43v12.5c0 5.52-4.48 10-10 10s-10-4.48-10-10 4.48-10 10-10c0.7 0 1.4 0.08 2.07 0.23v3.95c-0.67-0.2-1.37-0.3-2.07-0.3-3.35 0-6.25 2.71-6.25 6.25s2.9 6.25 6.25 6.25 6.25-2.9 6.25-6.25V5z" fill="#25F4EE"/>
    <path d="M26.25 5h3.75c0 4.15 3.35 7.5 7.5 7.5v3.75c-2.73 0-5.31-0.9-7.5-2.43v12.5c0 5.52-4.48 10-10 10v-3.95c3.35 0 6.25-2.9 6.25-6.25V5z" fill="#FE2C55"/>
    <circle cx="20" cy="26.67" r="3.33" fill="#000000"/>
  </g>
</svg>