<?xml version="1.0" encoding="UTF-8"?>
<svg width="20px" height="20px" viewBox="0 0 20 20" version="1.1" xmlns="http://www.w3.org/2000/svg" xmlns:xlink="http://www.w3.org/1999/xlink">
    <title>重置</title>
    <g id="页面-1" stroke="none" stroke-width="1" fill="none" fill-rule="evenodd">
        <g id="回收站/有数据" transform="translate(-616.000000, -122.000000)" fill-rule="nonzero">
            <g id="编组-7" transform="translate(320.000000, 114.000000)">
                <g id="重置" transform="translate(296.000000, 8.000000)">
                    <rect id="矩形" fill="#000000" opacity="0" x="0" y="0" width="20" height="20"></rect>
                    <path d="M3.54943359,11.1251172 L4.78527344,10.9549414 C4.73209058,10.5674342 4.71410699,10.1759071 4.73154297,9.78515625 L3.48527344,9.72978516 C3.4645166,10.195879 3.48599093,10.662895 3.54943359,11.1251172 L3.54943359,11.1251172 Z" id="路径" fill="#000000"></path>
                    <path d="M11.1172852,17.7137695 C12.1483594,17.7137695 13.1489063,17.5116992 14.0911719,17.1131445 C15.000957,16.7283203 15.8179102,16.1775586 16.5193164,15.4761523 C17.2207227,14.7747461 17.7714844,13.957793 18.1563086,13.0479883 C18.5548438,12.1057227 18.7569336,11.1051953 18.7569336,10.0741016 C18.7569336,9.04302734 18.5548633,8.04248047 18.1563086,7.10021484 C17.7714844,6.19042969 17.2207227,5.37347656 16.5193164,4.67207031 C15.8179102,3.97066406 15.000957,3.41990234 14.0911719,3.03507813 C13.1489063,2.63654297 12.1483594,2.43445313 11.1172852,2.43445313 C9.13669922,2.43445313 7.25894531,3.18921875 5.82994141,4.55970703 C4.40537109,5.92595703 3.57267578,7.76205078 3.48527344,9.72974609 L4.73154297,9.78515625 C4.88355469,6.3628125 7.68851563,3.68197266 11.1172852,3.68197266 C14.6419336,3.68197266 17.5094336,6.54949219 17.5094336,10.0741211 C17.5094336,13.59875 14.6419336,16.4662891 11.1172852,16.4662891 C9.75742188,16.4662891 8.45925781,16.0451367 7.36318359,15.2483789 L6.6296875,16.2574219 C7.94035156,17.2101758 9.49214844,17.7137695 11.1172852,17.7137695 Z" id="路径" fill="#333333"></path>
                    <path d="M4.34310547,12.291582 C4.50273438,12.291582 4.66236328,12.2306836 4.78414063,12.1088867 L7.07384766,9.81919922 C7.31744141,9.575625 7.31744141,9.18068359 7.07384766,8.93708984 C6.83027344,8.69349609 6.43533203,8.69349609 6.19175781,8.93708984 L3.90207031,11.2267773 C3.65847656,11.4703711 3.65847656,11.8653125 3.90207031,12.1088867 C4.02386719,12.2306836 4.18349609,12.291582 4.34310547,12.291582 L4.34310547,12.291582 Z" id="路径" fill="#333333"></path>
                    <path d="M4.2115625,12.3319922 C4.37121094,12.3319922 4.53080078,12.2711133 4.65259766,12.1492969 C4.89619141,11.9057227 4.89619141,11.5107813 4.65259766,11.2671875 L2.36291016,8.9775 C2.11935547,8.73392578 1.72441406,8.73392578 1.48082031,8.9775 C1.23722656,9.22109375 1.23722656,9.61601563 1.48082031,9.85960938 L3.77052734,12.1492969 C3.89228516,12.2710742 4.05195312,12.3319922 4.2115625,12.3319922 L4.2115625,12.3319922 Z" id="路径" fill="#333333"></path>
                </g>
            </g>
        </g>
    </g>
</svg>