<!-- 集成按钮左侧图标 -->
<svg width="16" height="16" viewBox="0 0 16 16" fill="none" xmlns="http://www.w3.org/2000/svg">
<path d="M11.3876 8.667V8.9337H11.0276C10.7542 8.9337 10.4542 9.1337 10.4542 9.4337V9.5337C10.4542 9.8337 10.2542 10.1337 9.9542 10.1337C9.6609 10.1337 9.4609 9.8337 9.4609 9.5337V9.4337C9.4609 9.1337 9.2542 8.9337 8.9609 8.9337C8.6676 8.9337 8.4676 9.1337 8.4676 9.4337V9.5337C8.4676 9.8337 8.2609 10.1337 7.9676 10.1337C7.6742 10.1337 7.4676 9.8337 7.4676 9.5337V9.4337C7.4676 9.1337 7.2609 8.9337 6.9676 8.9337C6.6742 8.9337 6.4742 9.1337 6.4742 9.4337V9.5203C6.4742 9.727 6.28755 9.927 6.00089 9.9203H5.67422V8.667C5.67422 8.147 6.06755 7.767 6.70755 7.6403C6.79422 7.6137 6.8876 7.6003 6.9942 7.6003H10.7076C10.8142 7.6003 10.9076 7.6137 10.9942 7.6403C11.6342 7.767 12.0276 8.147 12.0276 8.667Z" stroke="#333333" stroke-linecap="round" stroke-linejoin="round"/>
<path d="M10.8937 6.7797V6.7197C10.8004 6.6797 10.707 6.6663 10.607 6.6663H6.2937C6.1937 6.6663 6.10036 6.6863 6.00703 6.7263V6.7797C6.00703 6.97967 6.227 7.33301 6.8204 7.33301H9.6804C10.2737 7.33301 10.4937 6.97967 10.4937 6.7797Z" stroke="#333333" stroke-linecap="round" stroke-linejoin="round"/>
<path d="M7.832 5.36693V5.34026H7.3187C7.2454 5.34026 7.1854 5.36026 7.132 5.40026V5.36693C7.132 5.23359 7.2587 5.13359 7.432 5.13359C7.6054 5.13359 7.732 5.23359 7.732 5.36693Z" stroke="#333333" stroke-linecap="round" stroke-linejoin="round"/>
<path d="M10.168 5.21973V5.39973C10.1146 5.35306 10.0546 5.33306 9.9813 5.33306H9.468V5.21973C9.468 5.04639 9.5946 4.91973 9.768 4.91973C9.9413 4.91973 10.068 5.04639 10.068 5.21973Z" stroke="#333333" stroke-linecap="round" stroke-linejoin="round"/>
<path d="M9 4.87967V5.33301H8V4.87967C8 4.67967 8.1267 4.53301 8.3 4.53301C8.4733 4.53301 8.6 4.67967 8.6 4.87967Z" stroke="#333333" stroke-linecap="round" stroke-linejoin="round"/>
<path d="M12.6654 11.167C12.6654 11.3403 12.5387 11.467 12.3654 11.467H5.83203C5.6587 11.467 5.53203 11.3403 5.53203 11.167C5.53203 10.9936 5.6587 10.867 5.83203 10.867H6.07203V9.3203H6.2787V9.367C6.2787 9.8603 6.56536 10.287 7.1387 10.3803C7.5187 10.4403 7.8654 10.3203 8.1054 10.087C8.2587 9.9336 8.472 9.927 8.6254 10.0803C8.872 10.3203 9.1454 10.4336 9.4654 10.4336C9.7854 10.4336 10.0587 10.327 10.3054 10.0803C10.4587 9.9336 10.6654 9.9336 10.8254 10.087C11.0587 10.3203 11.4054 10.4403 11.792 10.3803C12.3654 10.287 12.652 9.8603 12.652 9.367V9.3336H12.9254V10.867H13.1654C13.3387 10.867 13.4654 10.9936 13.4654 11.167Z" stroke="#333333" stroke-linecap="round" stroke-linejoin="round"/>
</svg> 