<!-- 收藏夹按钮左侧图标 -->
<svg width="16" height="16" viewBox="0 0 16 16" fill="none" xmlns="http://www.w3.org/2000/svg">
<path d="M13.8933 3.07333C13.5529 2.73267 13.1485 2.46227 12.7036 2.27485C12.2587 2.08743 11.7817 1.99867 11.3 1.99867C10.8183 1.99867 10.3413 2.08743 9.8964 2.27485C9.45147 2.46227 9.04707 2.73267 8.70667 3.07333L8 3.78L7.29333 3.07333C6.60553 2.38553 5.67269 1.99893 4.7 1.99893C3.72731 1.99893 2.79447 2.38553 2.10667 3.07333C1.41887 3.76113 1.03227 4.69397 1.03227 5.66667C1.03227 6.63936 1.41887 7.5722 2.10667 8.26L8 14.1533L13.8933 8.26C14.234 7.91947 14.5044 7.51507 14.6918 7.07013C14.8792 6.6252 14.968 6.1482 14.968 5.66667C14.968 5.18513 14.8792 4.70813 14.6918 4.2632C14.5044 3.81827 14.234 3.41387 13.8933 3.07333V3.07333Z" stroke="currentColor" stroke-width="1.33333" stroke-linecap="round" stroke-linejoin="round"/>
</svg> 