<svg id="图层_1" data-name="图层 1" xmlns="http://www.w3.org/2000/svg" viewBox="0 0 664.79 139.04"><defs><style>.cls-1{fill:#fac3af;}.cls-2{fill:#f89575;}.cls-3{fill:#f9d2c1;}.cls-4{fill:#fbcdbd;}.cls-5{fill:#f9af96;}.cls-6{fill:#fbc4b0;}.cls-7{fill:#f99575;}.cls-8{fill:none;}</style></defs><polygon class="cls-1" points="74.65 57.51 123.82 77.3 126.27 52.63 121.85 8.74 76.79 55.3 74.65 57.51"/><path class="cls-2" d="M86,57.09,131,10.54A9.8,9.8,0,0,0,123,9a12.39,12.39,0,0,0-5.39,2.64L100.25,26.05a45.9,45.9,0,0,0-7,7.2,1.83,1.83,0,0,1-.13.16,33.24,33.24,0,0,0-6.52,15.18A46.55,46.55,0,0,0,86,57.09Z" transform="translate(-9.16 -1.8)"/><path class="cls-3" d="M131,10.54l4.41,43.89,35.64-4.27a5.68,5.68,0,0,0-1.45-5.06l-22-23L151.2,3.42a1.35,1.35,0,0,0-1.91-1.49Z" transform="translate(-9.16 -1.8)"/><path class="cls-4" d="M135.42,54.43l16.23,10.95a7.61,7.61,0,0,0,10.44-1.87l8-11.22a5.71,5.71,0,0,0,.94-2.13Z" transform="translate(-9.16 -1.8)"/><path class="cls-5" d="M83.81,59.31l18.7,51.3L113,139.38a2.22,2.22,0,0,0,2.08,1.45h9.79a2.21,2.21,0,0,0,2.2-2L133,79.09Z" transform="translate(-9.16 -1.8)"/><path class="cls-6" d="M25.38,95.9l33.13,13.65,25.3-50.24-29-.74A34.73,34.73,0,0,0,41.56,62a28.08,28.08,0,0,0-14.62,16.6A47,47,0,0,0,25.38,95.9Z" transform="translate(-9.16 -1.8)"/><path class="cls-2" d="M25.38,95.9v0L30,139.19a1.83,1.83,0,0,0,1.82,1.64h9.85a1.85,1.85,0,0,0,1.64-1l15.23-30.27Z" transform="translate(-9.16 -1.8)"/><polygon class="cls-7" points="49.35 107.76 93.35 108.81 74.65 57.51 49.35 107.76"/><path class="cls-2" d="M10.07,64.62l22.25,4.47A28.59,28.59,0,0,1,41.56,62c-1.74-3.47-9-14.84-29-15.66a1.12,1.12,0,0,0-1.17,1l-2.26,16A1.12,1.12,0,0,0,10.07,64.62Z" transform="translate(-9.16 -1.8)"/><path class="cls-8" d="M204.72,37.49q6.12.75,5.24,6.87-4,31.2-11.48,54.3-1.64,5.86-7.49,4l-.5-.25q-5.75-1.86-3.87-7.74,3.87-12.48,6.68-26.08a257.59,257.59,0,0,0,4-25.84,6.57,6.57,0,0,1,2.19-4.31,6.16,6.16,0,0,1,4.68-.94Zm37.95-21.84q6.11,0,6.11,6.11v95.5q0,11.47-11.36,11.48H227.31q-6.12,0-6.11-6.11v-.5q0-6,6.11-6h8.74V21.76q0-6.1,6.12-6.11Zm37,21.84a6.18,6.18,0,0,1,4.68.94,6.57,6.57,0,0,1,2.18,4.31q3.61,29.46,10.74,51.92c1.25,3.92-.05,6.5-3.87,7.74l-.5.25q-5.87,1.88-7.49-4a259.75,259.75,0,0,1-7.05-27.09q-2.94-14.23-4.44-27.21-.87-6.12,5.25-6.87ZM389,94.29q6,0,6,6.12v.5q0,6.11-6,6.11H317.06q-6.1,0-6.11-6.11v-.5q0-6.12,6.11-6.12Zm2.62-76.39c3.74,0,6.57,1,8.49,2.87S403,25.51,403,29.25V66.08q0,6.12-6.12,6.12h-.5q-6.12,0-6.12-6.12V30.38h-68q-6,0-6-6v-.5c0-4,2-6,6-6Zm-50.68,6.24q6.1,1,4.87,7.24L339.66,66h71.65c3.75,0,6.57,1,8.49,2.88s2.87,4.74,2.87,8.48v40.45q0,5.49-2.81,8.42t-8.55,2.94H400.45q-6,0-6-6v-.5q0-6,6-6h9.49V78.44h-72q-6.74,0-9.55-3.37T326.68,65l6.49-36q1.13-6,7.24-4.86ZM540.63,89.8c3.75-.09,5.7,1.7,5.87,5.36v.5c.17,3.75-1.62,5.7-5.37,5.87l-98.61,4.12c-3.75.17-5.7-1.62-5.87-5.37v-.5Q436.4,94.29,442,94l98.61-4.24ZM445.26,15.4q6.12,0,6.12,4.37v1.37h32.21q5.49,0,5.49,5.49v.5c0,3.67-1.83,5.49-5.49,5.49H449.51q-10.86,0-10.86-10.86v-2q0-4.36,6.11-4.37Zm91.25,52.3c3.67-.16,5.62,1.58,5.87,5.24v.5q.38,5.63-5.24,5.87l-90.25,4.25c-3.67.16-5.62-1.63-5.87-5.37v-.5c-.25-3.66,1.5-5.58,5.24-5.74l90.25-4.25Zm-.37-22.84q5.49-.26,5.74,5.37v.5q.25,5.49-5.37,5.74l-89.37,4.12c-3.67.16-5.58-1.63-5.75-5.37v-.5q-.24-5.49,5.37-5.74l89.38-4.12Zm-70.53-18c4,0,6,2,6,6v4.37c0,3.92-2,5.87-6,5.87h-.5c-4,0-6-2-6-5.87V32.87q0-6,6-6Zm22.22,26.59q6.12,0,6.12,6.12v57.67h46.68c3.41,0,5.12,1.7,5.12,5.12V123q0,5.12-5.12,5.12H492c-3.5,0-6.16-.9-8-2.68s-2.75-4.48-2.75-8.06V59.59q0-6.12,6.12-6.12ZM501.06,15.4q6.12,0,6.12,4.37v1.37h33.2c3.66,0,5.5,1.83,5.5,5.49v.5c0,3.67-1.84,5.49-5.5,5.49H505.31q-10.86,0-10.86-10.86v-2c0-2.91,2-4.37,6.11-4.37Zm17,11.48q6,0,6,6v3.38q0,6-6,6h-.5q-6,0-6-6V32.87q0-6,6-6Zm50.8,26.47q5.63,0,8.62,2.93c2,2,3,4.85,3,8.68v49.93h3.87q6.38,0,6.37,6.36v.5q0,6.24-6.37,6.24h-5c-3.83,0-6.74-1-8.74-2.93s-3-4.89-3-8.8V66.33h-3.5q-6.24,0-6.24-6.24v-.5q0-6.24,6.24-6.24ZM570.34,17c3.75-1.83,6.53-.91,8.37,2.75L586,34.5q2.87,5.49-2.75,8.24l-.5.25q-5.49,2.74-8.36-2.88l-7.24-14.6q-2.75-5.62,2.74-8.24l.5-.25Zm85.39,2.5q11.47,0,11.48,11.48V60.84q0,11.47-11.48,11.48H616.65v42.57h44.57V107.4q0-6.12,6.11-6.12h.5q6.12,0,6.12,6.12v8.74q0,11.48-11.36,11.48H615.28q-11.49,0-11.48-11.48V71.2q0-11.49,11.48-11.49h39.07V32.25H606.29q-6,0-6-6.12v-.5q0-6.1,6-6.11Z" transform="translate(-9.16 -1.8)"/></svg>