<?xml version="1.0" encoding="utf-8"?>
<!-- Generator: Adobe Illustrator 25.3.1, SVG Export Plug-In . SVG Version: 6.00 Build 0)  -->
<svg version="1.1" id="图层_1" xmlns="http://www.w3.org/2000/svg" xmlns:xlink="http://www.w3.org/1999/xlink" x="0px" y="0px"
	 viewBox="0 0 761.7 143.1" style="enable-background:new 0 0 761.7 143.1;" xml:space="preserve">
<style type="text/css">
	.st0{clip-path:url(#SVGID_2_);}
	.st1{fill:#FAC3AF;}
	.st2{fill:#F89575;}
	.st3{fill:#F9D2C1;}
	.st4{fill:#FBCDBD;}
	.st5{fill:#F9AF96;}
	.st6{fill:#FBC4B0;}
	.st7{fill:#F99575;}
	.st8{fill:none;}
</style>
<g>
	<defs>
		<path id="SVGID_1_" d="M142.9,23.8v96.9c0,12.5-9.5,22.6-21.3,22.6h-100c-11.8,0-21.3-10.1-21.3-22.6V23.8
			c0-12.5,9.6-22.7,21.3-22.7h100C133.4,1.1,142.9,11.2,142.9,23.8z"/>
	</defs>
	<clipPath id="SVGID_2_">
		<use xlink:href="#SVGID_1_"  style="overflow:visible;"/>
	</clipPath>
	<g class="st0">
		<polygon class="st1" points="2.1,75.6 58.3,98.3 61.1,70 56.1,19.8 4.5,73.1 		"/>
		<path class="st2" d="M4.5,73.1l51.6-53.3c0,0-3.5-2.9-9.2-1.7c-2.3,0.5-4.4,1.5-6.2,3L20.9,37.6c-3,2.5-5.7,5.2-8,8.2
			c0,0.1-0.1,0.1-0.1,0.2c-3.9,5.1-6.5,11-7.5,17.4C4.8,66.3,4.4,69.8,4.5,73.1z"/>
		<path class="st3" d="M56.1,19.8L61.1,70l40.8-4.9c0.4-2-0.1-4.2-1.7-5.8L75,33.1l4.2-21.4c0.2-1.2-1-2.2-2.2-1.7L56.1,19.8z"/>
		<path class="st4" d="M61.1,70l18.6,12.5c3.9,2.6,9.2,1.7,11.9-2.1l9.2-12.8c0.5-0.8,0.9-1.6,1.1-2.4L61.1,70z"/>
		<path class="st5" d="M2.1,75.6l21.4,58.7l12,32.9c0.4,1,1.3,1.7,2.4,1.7H49c1.3,0,2.4-1,2.5-2.3l6.8-68.4L2.1,75.6z"/>
		<path class="st6" d="M-64.8,117.5l37.9,15.6L2.1,75.6l-33.2-0.8c0,0-7.3,0.1-15.2,4c-3.6,1.8-7.4,4.3-10.6,8.1
			c-2.5,2.9-4.6,6.5-6.1,10.9C-63,97.7-66,107.2-64.8,117.5z"/>
		<path class="st2" d="M-64.8,117.5C-64.8,117.5-64.8,117.5-64.8,117.5l5.3,49.5c0.1,1.1,1,1.9,2.1,1.9h11.3c0.8,0,1.5-0.4,1.9-1.2
			l17.4-34.6L-64.8,117.5z"/>
		<polygon class="st7" points="-26.9,133.1 23.5,134.3 2.1,75.6 		"/>
		<path class="st2" d="M-82.3,81.7l25.5,5.1c3.2-3.7,6.9-6.3,10.6-8.1c-2-4-10.2-17-33.1-17.9c-0.7,0-1.2,0.5-1.3,1.1l-2.6,18.3
			C-83.4,80.9-83,81.6-82.3,81.7z"/>
	</g>
</g>
<g>
	<path class="st8" d="M144.8,41.3c4.1,0.5,5.8,2.8,5.3,6.9c-2.7,20.9-6.5,39-11.5,54.5c-1.1,3.9-3.6,5.3-7.5,4l-0.5-0.3
		c-3.8-1.3-5.1-3.8-3.9-7.8c2.6-8.3,4.8-17.1,6.7-26.2c1.9-9.1,3.2-17.7,4.1-25.9c0.3-2,1.1-3.4,2.2-4.3c1.1-0.9,2.7-1.2,4.7-0.9
		H144.8L144.8,41.3z M182.8,19.4c4.1,0,6.1,2,6.1,6.1v95.8c0,7.7-3.8,11.5-11.4,11.5h-10.1c-4.1,0-6.1-2-6.1-6.1v-0.5c0-4,2-6,6.1-6
		h8.8V25.5c0-4.1,2-6.1,6.1-6.1H182.8L182.8,19.4z M219.9,41.3c2-0.3,3.6,0.1,4.7,0.9c1.1,0.9,1.9,2.3,2.2,4.3
		c2.4,19.7,6,37.1,10.8,52.1c1.3,3.9,0,6.5-3.9,7.8l-0.5,0.3c-3.9,1.3-6.4-0.1-7.5-4c-2.8-8.6-5.1-17.7-7.1-27.2
		c-2-9.5-3.4-18.6-4.4-27.3c-0.6-4.1,1.2-6.4,5.3-6.9H219.9L219.9,41.3z M329.6,98.2c4,0,6,2,6,6.1v0.5c0,4.1-2,6.1-6,6.1h-72.1
		c-4.1,0-6.1-2-6.1-6.1v-0.5c0-4.1,2-6.1,6.1-6.1H329.6L329.6,98.2z M332.2,21.6c3.8,0,6.6,1,8.5,2.9c1.9,1.9,2.9,4.8,2.9,8.5v36.9
		c0,4.1-2,6.1-6.1,6.1H337c-4.1,0-6.1-2-6.1-6.1V34.1h-68.2c-4,0-6-2-6-6v-0.5c0-4,2-6,6-6H332.2L332.2,21.6z M281.4,27.9
		c4.1,0.7,5.7,3.1,4.9,7.3l-6.1,34.7H352c3.8,0,6.6,1,8.5,2.9c1.9,1.9,2.9,4.8,2.9,8.5v40.6c0,3.7-0.9,6.5-2.8,8.5
		c-1.9,2-4.7,2.9-8.6,2.9h-10.9c-4,0-6-2-6-6v-0.5c0-4,2-6,6-6h9.5V82.3h-72.2c-4.5,0-7.7-1.1-9.6-3.4c-1.9-2.3-2.4-5.6-1.7-10.1
		l6.5-36.1c0.8-4,3.2-5.6,7.3-4.9H281.4L281.4,27.9z M481.7,93.7c3.8-0.1,5.7,1.7,5.9,5.4v0.5c0.2,3.8-1.6,5.7-5.4,5.9l-98.9,4.1
		c-3.8,0.2-5.7-1.6-5.9-5.4v-0.5c-0.2-3.7,1.6-5.6,5.4-5.8L481.7,93.7L481.7,93.7z M386,19.1c4.1,0,6.1,1.5,6.1,4.4v1.4h32.3
		c3.7,0,5.5,1.8,5.5,5.5v0.5c0,3.7-1.8,5.5-5.5,5.5h-34.2c-7.3,0-10.9-3.6-10.9-10.9v-2c0-2.9,2-4.4,6.1-4.4H386L386,19.1z
		 M477.6,71.6c3.7-0.2,5.6,1.6,5.9,5.3v0.5c0.3,3.8-1.5,5.7-5.3,5.9l-90.5,4.3c-3.7,0.2-5.6-1.6-5.9-5.4v-0.5
		c-0.3-3.7,1.5-5.6,5.3-5.8L477.6,71.6L477.6,71.6z M477.2,48.7c3.7-0.2,5.6,1.6,5.8,5.4v0.5c0.2,3.7-1.6,5.6-5.4,5.8l-89.6,4.1
		c-3.7,0.2-5.6-1.6-5.8-5.4v-0.5c-0.2-3.7,1.6-5.6,5.4-5.8L477.2,48.7L477.2,48.7z M406.4,30.6c4,0,6,2,6,6V41c0,3.9-2,5.9-6,5.9
		h-0.5c-4,0-6-2-6-5.9v-4.4c0-4,2-6,6-6H406.4L406.4,30.6z M428.7,57.3c4.1,0,6.1,2,6.1,6.1v57.8h46.8c3.4,0,5.1,1.7,5.1,5.1v0.6
		c0,3.4-1.7,5.1-5.1,5.1h-48.8c-3.5,0-6.2-0.9-8-2.7c-1.8-1.8-2.8-4.5-2.8-8.1v-58c0-4.1,2-6.1,6.1-6.1H428.7L428.7,57.3z M442,19.1
		c4.1,0,6.1,1.5,6.1,4.4v1.4h33.3c3.7,0,5.5,1.8,5.5,5.5v0.5c0,3.7-1.8,5.5-5.5,5.5h-35.2c-7.3,0-10.9-3.6-10.9-10.9v-2
		c0-2.9,2-4.4,6.1-4.4H442L442,19.1z M459,30.6c4,0,6,2,6,6V40c0,4-2,6-6,6h-0.5c-4,0-6-2-6-6v-3.4c0-4,2-6,6-6H459L459,30.6z
		 M510,57.2c3.8,0,6.6,1,8.6,2.9c2,2,3,4.9,3,8.7v50.1h3.9c4.3,0,6.4,2.1,6.4,6.4v0.5c0,4.2-2.1,6.3-6.4,6.3h-5
		c-3.8,0-6.8-1-8.8-2.9c-2-2-3-4.9-3-8.8V70.2h-3.5c-4.2,0-6.3-2.1-6.3-6.3v-0.5c0-4.2,2.1-6.3,6.3-6.3H510L510,57.2z M511.5,20.7
		c3.8-1.8,6.6-0.9,8.4,2.8l7.3,14.8c1.9,3.7,1,6.4-2.8,8.3l-0.5,0.3c-3.7,1.8-6.5,0.9-8.4-2.9l-7.3-14.6c-1.8-3.8-0.9-6.5,2.8-8.3
		L511.5,20.7L511.5,20.7z M597.1,23.2c7.7,0,11.5,3.8,11.5,11.5v29.9c0,7.7-3.8,11.5-11.5,11.5h-39.2v42.7h44.7v-7.5
		c0-4.1,2-6.1,6.1-6.1h0.5c4.1,0,6.1,2,6.1,6.1v8.8c0,7.7-3.8,11.5-11.4,11.5h-47.5c-7.7,0-11.5-3.8-11.5-11.5V75.1
		c0-7.7,3.8-11.5,11.5-11.5h39.2V36h-48.2c-4,0-6-2-6-6.1v-0.5c0-4.1,2-6.1,6-6.1H597.1L597.1,23.2z"/>
</g>
</svg>
