<?xml version="1.0" encoding="utf-8"?>
<!-- Generator: Adobe Illustrator 25.3.1, SVG Export Plug-In . SVG Version: 6.00 Build 0)  -->
<svg version="1.1" id="图层_1" xmlns="http://www.w3.org/2000/svg" xmlns:xlink="http://www.w3.org/1999/xlink" x="0px" y="0px"
	 viewBox="0 0 41 40" style="enable-background:new 0 0 41 40;" xml:space="preserve">
<style type="text/css">
	.st0{clip-path:url(#SVGID_2_);}
	.st1{fill:#FAC3AF;}
	.st2{fill:#F89575;}
	.st3{fill:#F9D2C1;}
	.st4{fill:#FBCDBD;}
	.st5{fill:#F9AF96;}
	.st6{fill:#FBC4B0;}
	.st7{fill:#F99575;}
</style>
<g>
	<defs>
		<path id="SVGID_1_" d="M39.8,6.5v27.1c0,3.5-2.7,6.3-6,6.3H5.9c-3.3,0-6-2.8-6-6.3V6.5c0-3.5,2.7-6.3,6-6.3h27.9
			C37.1,0.2,39.8,3.1,39.8,6.5z"/>
	</defs>
	<clipPath id="SVGID_2_">
		<use xlink:href="#SVGID_1_"  style="overflow:visible;"/>
	</clipPath>
	<g class="st0">
		<polygon class="st1" points="0.4,21 16.2,27.4 16.9,19.5 15.5,5.5 1.1,20.3 		"/>
		<path class="st2" d="M1.1,20.3L15.5,5.5c0,0-1-0.8-2.6-0.5c-0.6,0.1-1.2,0.4-1.7,0.8l-5.5,4.6c-0.8,0.7-1.6,1.5-2.2,2.3
			c0,0,0,0,0,0.1c-1.1,1.4-1.8,3.1-2.1,4.9C1.2,18.4,1.1,19.4,1.1,20.3z"/>
		<path class="st3" d="M15.5,5.5l1.4,14l11.4-1.4c0.1-0.6,0-1.2-0.5-1.6l-7-7.3l1.2-6c0.1-0.3-0.3-0.6-0.6-0.5L15.5,5.5z"/>
		<path class="st4" d="M16.9,19.5l5.2,3.5c1.1,0.7,2.6,0.5,3.3-0.6l2.6-3.6c0.1-0.2,0.2-0.4,0.3-0.7L16.9,19.5z"/>
		<path class="st5" d="M0.4,21l6,16.4l3.4,9.2c0.1,0.3,0.4,0.5,0.7,0.5h3.1c0.4,0,0.7-0.3,0.7-0.6l1.9-19.1L0.4,21z"/>
		<path class="st6" d="M-18.2,32.7l10.6,4.4L0.4,21l-9.3-0.2c0,0-2,0-4.2,1.1c-1,0.5-2.1,1.2-3,2.3c-0.7,0.8-1.3,1.8-1.7,3.1
			C-17.7,27.2-18.6,29.9-18.2,32.7z"/>
		<path class="st2" d="M-18.2,32.7C-18.2,32.7-18.2,32.7-18.2,32.7l1.5,13.8c0,0.3,0.3,0.5,0.6,0.5h3.1c0.2,0,0.4-0.1,0.5-0.3
			l4.9-9.7L-18.2,32.7z"/>
		<polygon class="st7" points="-7.6,37.1 6.4,37.4 0.4,21 		"/>
		<path class="st2" d="M-23.1,22.7l7.1,1.4c0.9-1,1.9-1.8,3-2.3c-0.6-1.1-2.9-4.7-9.3-5c-0.2,0-0.3,0.1-0.4,0.3l-0.7,5.1
			C-23.4,22.5-23.3,22.7-23.1,22.7z"/>
	</g>
</g>
</svg>
