<svg id="图层_1" data-name="图层 1" xmlns="http://www.w3.org/2000/svg" viewBox="0 0 80.25 16.79"><defs><style>.cls-1{fill:#fac3af;}.cls-2{fill:#f89575;}.cls-3{fill:#f9d2c1;}.cls-4{fill:#fbcdbd;}.cls-5{fill:#f9af96;}.cls-6{fill:#fbc4b0;}.cls-7{fill:#f99575;}.cls-8{fill:#333;}</style></defs><polygon class="cls-1" points="9.01 6.94 14.95 9.33 15.24 6.35 14.71 1.06 9.27 6.68 9.01 6.94"/><path class="cls-2" d="M10,6.81l5.44-5.62a1.16,1.16,0,0,0-1-.18,1.47,1.47,0,0,0-.65.32L11.72,3.07a5.32,5.32,0,0,0-.85.86V4a4,4,0,0,0-.79,1.84A5.62,5.62,0,0,0,10,6.81Z" transform="translate(-0.72 -0.14)"/><path class="cls-3" d="M15.43,1.19,16,6.49,20.27,6a.68.68,0,0,0-.18-.61L17.43,2.59,17.87.33a.17.17,0,0,0-.23-.18Z" transform="translate(-0.72 -0.14)"/><path class="cls-4" d="M16,6.49l2,1.32a.92.92,0,0,0,1.26-.22l1-1.36A.64.64,0,0,0,20.27,6Z" transform="translate(-0.72 -0.14)"/><path class="cls-5" d="M9.73,7.08,12,13.27l1.27,3.48a.27.27,0,0,0,.25.17h1.18a.27.27,0,0,0,.27-.24l.71-7.21Z" transform="translate(-0.72 -0.14)"/><path class="cls-6" d="M2.68,11.5l4,1.65L9.73,7.08,6.23,7a4.13,4.13,0,0,0-1.6.42,3.58,3.58,0,0,0-1.11.85,3.53,3.53,0,0,0-.65,1.15A5.79,5.79,0,0,0,2.68,11.5Z" transform="translate(-0.72 -0.14)"/><path class="cls-2" d="M2.68,11.5h0l.55,5.22a.23.23,0,0,0,.22.2H4.64a.21.21,0,0,0,.2-.12l1.84-3.65Z" transform="translate(-0.72 -0.14)"/><polygon class="cls-7" points="5.96 13.01 11.27 13.14 9.01 6.94 5.96 13.01"/><path class="cls-2" d="M.83,7.72l2.69.54a3.58,3.58,0,0,1,1.11-.85A3.81,3.81,0,0,0,1.14,5.52.14.14,0,0,0,1,5.64L.72,7.57A.13.13,0,0,0,.83,7.72Z" transform="translate(-0.72 -0.14)"/><path class="cls-8" d="M25.36,4.66a.64.64,0,0,1,.62.82,36.23,36.23,0,0,1-1.36,6.43.62.62,0,0,1-.89.48l-.06,0a.65.65,0,0,1-.46-.92A31.7,31.7,0,0,0,24,8.35c.22-1.08.38-2.1.48-3.07a.83.83,0,0,1,.26-.51.75.75,0,0,1,.56-.11Zm4.49-2.59a.64.64,0,0,1,.73.73V14.12a1.2,1.2,0,0,1-1.35,1.36H28a.64.64,0,0,1-.72-.73v-.06A.63.63,0,0,1,28,14h1V2.8a.64.64,0,0,1,.72-.73Zm4.38,2.59a.76.76,0,0,1,.56.11.83.83,0,0,1,.26.51,34.18,34.18,0,0,0,1.27,6.16.65.65,0,0,1-.46.92l-.06,0a.62.62,0,0,1-.89-.48,31.28,31.28,0,0,1-.83-3.21c-.23-1.12-.41-2.2-.53-3.22a.64.64,0,0,1,.62-.82Zm13,6.73a.64.64,0,0,1,.71.73v.06a.63.63,0,0,1-.71.72H38.67a.64.64,0,0,1-.72-.72v-.06a.64.64,0,0,1,.72-.73Zm.31-9a1.36,1.36,0,0,1,1,.34,1.36,1.36,0,0,1,.34,1V8.05a.64.64,0,0,1-.72.73h-.06a.65.65,0,0,1-.73-.73V3.82H39.28a.63.63,0,0,1-.71-.71V3.05a.63.63,0,0,1,.71-.71Zm-6,.74a.63.63,0,0,1,.57.86L41.35,8h8.49a1.36,1.36,0,0,1,1,.34,1.37,1.37,0,0,1,.34,1v4.8a1.38,1.38,0,0,1-.33,1,1.33,1.33,0,0,1-1,.35H48.55a.63.63,0,0,1-.71-.71v-.06a.63.63,0,0,1,.71-.71h1.13V9.51H41.14A1.42,1.42,0,0,1,40,9.12a1.46,1.46,0,0,1-.2-1.2l.77-4.26a.65.65,0,0,1,.86-.58Zm23.67,7.78a.6.6,0,0,1,.7.64v.06a.59.59,0,0,1-.64.69l-11.69.49a.59.59,0,0,1-.69-.64V12a.58.58,0,0,1,.63-.68l11.69-.5ZM53.87,2c.48,0,.72.18.72.52v.16h3.82a.58.58,0,0,1,.65.65v.06a.57.57,0,0,1-.65.65h-4A1.13,1.13,0,0,1,53.08,2.8V2.56c0-.34.24-.52.73-.52Zm10.81,6.2a.59.59,0,0,1,.7.62v.06a.58.58,0,0,1-.62.7l-10.7.5a.6.6,0,0,1-.7-.63V9.43A.57.57,0,0,1,54,8.75l10.7-.51Zm0-2.71a.59.59,0,0,1,.68.64v.06a.58.58,0,0,1-.64.68L54.09,7.4c-.44,0-.66-.19-.68-.64V6.7A.58.58,0,0,1,54,6l10.6-.49ZM56.28,3.4a.63.63,0,0,1,.71.71v.52a.62.62,0,0,1-.71.7h-.06a.62.62,0,0,1-.71-.7V4.11a.63.63,0,0,1,.71-.71Zm2.63,3.16a.64.64,0,0,1,.73.72v6.84h5.53a.54.54,0,0,1,.61.6v.08a.54.54,0,0,1-.61.6H59.4a1.12,1.12,0,0,1-1.27-1.27V7.28a.64.64,0,0,1,.72-.72ZM60.48,2c.48,0,.72.18.72.52v.16h3.94a.58.58,0,0,1,.65.65v.06a.57.57,0,0,1-.65.65H61A1.13,1.13,0,0,1,59.7,2.8V2.56c0-.34.24-.52.72-.52Zm2,1.36a.63.63,0,0,1,.71.71v.4a.62.62,0,0,1-.71.71h-.06a.63.63,0,0,1-.71-.71v-.4a.63.63,0,0,1,.71-.71Zm6,3.14a1.39,1.39,0,0,1,1,.35,1.36,1.36,0,0,1,.36,1v5.92h.46a.66.66,0,0,1,.75.75v.06a.66.66,0,0,1-.75.74h-.59a1.44,1.44,0,0,1-1-.35,1.38,1.38,0,0,1-.35-1V8.08H68a.66.66,0,0,1-.74-.74V7.28A.66.66,0,0,1,68,6.54Zm.18-4.3a.65.65,0,0,1,1,.32l.86,1.75a.63.63,0,0,1-.32,1l-.06,0a.66.66,0,0,1-1-.34l-.85-1.73a.63.63,0,0,1,.32-1l.06,0Zm10.12.29a1.2,1.2,0,0,1,1.36,1.36V7.43a1.2,1.2,0,0,1-1.36,1.36H74.18v5.05h5.28V13a.64.64,0,0,1,.73-.73h.06A.64.64,0,0,1,81,13v1a1.19,1.19,0,0,1-1.34,1.36H74A1.2,1.2,0,0,1,72.66,14V8.66A1.2,1.2,0,0,1,74,7.3h4.63V4H73a.63.63,0,0,1-.71-.72V3.26A.64.64,0,0,1,73,2.53Z" transform="translate(-0.72 -0.14)"/></svg>