<svg id="图层_1" data-name="图层 1" xmlns="http://www.w3.org/2000/svg" viewBox="0 0 40.45 34.71"><defs><style>.cls-1{fill:#fac3af;}.cls-2{fill:#f89575;}.cls-3{fill:#f9d2c1;}.cls-4{fill:#fbcdbd;}.cls-5{fill:#f9af96;}.cls-6{fill:#fbc4b0;}.cls-7{fill:#f99575;}</style></defs><polygon class="cls-1" points="18.64 14.36 30.91 19.3 31.52 13.14 30.42 2.18 19.17 13.8 18.64 14.36"/><path class="cls-2" d="M19.38,16,30.63,4.34a2.46,2.46,0,0,0-2-.38,3.18,3.18,0,0,0-1.34.66L23,8.21A11,11,0,0,0,21.2,10l0,0a8.25,8.25,0,0,0-1.63,3.79A10.37,10.37,0,0,0,19.38,16Z" transform="translate(-0.21 -2.15)"/><path class="cls-3" d="M30.63,4.34l1.1,11,8.89-1.06A1.38,1.38,0,0,0,40.26,13l-5.5-5.74.91-4.67a.34.34,0,0,0-.48-.37Z" transform="translate(-0.21 -2.15)"/><path class="cls-4" d="M31.73,15.29,35.78,18a1.91,1.91,0,0,0,2.61-.47l2-2.8a1.19,1.19,0,0,0,.23-.53Z" transform="translate(-0.21 -2.15)"/><path class="cls-5" d="M18.84,16.51l4.67,12.81,2.62,7.18a.55.55,0,0,0,.52.36h2.44a.55.55,0,0,0,.55-.49l1.48-14.92Z" transform="translate(-0.21 -2.15)"/><path class="cls-6" d="M4.26,25.65l8.27,3.41,6.31-12.55-7.23-.18a8.57,8.57,0,0,0-3.31.86,7,7,0,0,0-3.65,4.15A11.64,11.64,0,0,0,4.26,25.65Z" transform="translate(-0.21 -2.15)"/><path class="cls-2" d="M4.26,25.65h0L5.4,36.46a.46.46,0,0,0,.46.4H8.32a.43.43,0,0,0,.4-.25l3.81-7.55Z" transform="translate(-0.21 -2.15)"/><polygon class="cls-7" points="12.32 26.9 23.3 27.17 18.64 14.36 12.32 26.9"/><path class="cls-2" d="M.43,17.84,6,19A7.18,7.18,0,0,1,8.3,17.19c-.44-.86-2.24-3.7-7.23-3.91a.29.29,0,0,0-.3.24l-.56,4A.29.29,0,0,0,.43,17.84Z" transform="translate(-0.21 -2.15)"/></svg>